<?xml version="1.0" encoding="UTF-8"?>
<svg id="Layer_1" data-name="Layer 1" xmlns="http://www.w3.org/2000/svg" xmlns:xlink="http://www.w3.org/1999/xlink" viewBox="0 0 72.4 80.38">
  <defs>
    <style>
      .cls-1 {
        fill: url(#linear-gradient-2);
      }

      .cls-2 {
        fill: #fff;
      }

      .cls-3 {
        fill: #f9f9f9;
      }

      .cls-4 {
        fill: url(#linear-gradient-3);
      }

      .cls-5 {
        fill: url(#linear-gradient);
      }
    </style>
    <linearGradient id="linear-gradient" x1="36.2" y1="57.82" x2="36.2" y2="20.25" gradientTransform="translate(0 70.78) scale(1 -1)" gradientUnits="userSpaceOnUse">
      <stop offset="0" stop-color="#c11a80"/>
      <stop offset="1" stop-color="#5a489c"/>
    </linearGradient>
    <linearGradient id="linear-gradient-2" x1="36.2" y1="21.55" x2="36.2" y2="7.3" gradientTransform="translate(0 70.78) scale(1 -1)" gradientUnits="userSpaceOnUse">
      <stop offset="0" stop-color="#c11a80"/>
      <stop offset="1" stop-color="#23429a"/>
    </linearGradient>
    <linearGradient id="linear-gradient-3" x1="36.05" y1="70.77" x2="36.17" y2="21.11" gradientTransform="translate(0 70.78) scale(1 -1)" gradientUnits="userSpaceOnUse">
      <stop offset="0" stop-color="#c11a80"/>
      <stop offset="1" stop-color="#7b3894"/>
    </linearGradient>
  </defs>
  <path class="cls-5" d="M36.59,41.6l33.54,19.58L36.59,30.06,2.27,61.17l34.32-19.58Z"/>
  <path class="cls-1" d="M70.13,61.17H2.27l34.32-8.39,33.54,8.39Z"/>
  <path class="cls-4" d="M36.59,14.68l33.54,46.49L36.59,0,2.27,61.17,36.59,14.68Z"/>
  <path class="cls-2" d="M26.62,77.13l-21,1.63,21,1.63,2.57-1.63-2.57-1.63Z"/>
  <path class="cls-2" d="M45.48,77.13l21,1.63-21,1.63-2.57-1.63,2.57-1.63Z"/>
  <path class="cls-2" d="M31.57,80.11l-1.21-1.09c-.17-.15-.17-.39,0-.54l1.21-1.08c.17-.15,.44-.15,.61,0l1.21,1.09c.17,.15,.17,.39,0,.54l-1.21,1.08c-.17,.15-.44,.15-.61,0Z"/>
  <path class="cls-2" d="M35.85,80.11l-1.21-1.09c-.17-.15-.17-.39,0-.54l1.21-1.08c.17-.15,.44-.15,.61,0l1.21,1.09c.17,.15,.17,.39,0,.54l-1.21,1.08c-.17,.15-.44,.15-.61,0Z"/>
  <path class="cls-2" d="M40.14,80.11l-1.21-1.09c-.17-.15-.17-.39,0-.54l1.21-1.08c.17-.15,.44-.15,.61,0l1.21,1.09c.17,.15,.17,.39,0,.54l-1.21,1.08c-.17,.15-.44,.15-.61,0Z"/>
  <path class="cls-3" d="M2.05,73.29c-.63,0-1.4-.17-2.05-.54v-1.73H.25c.41,1.28,1.09,1.73,1.97,1.73,.93,0,1.36-.5,1.36-1.13,0-.74-.59-1.1-1.18-1.34l-.82-.32c-.9-.35-1.55-.85-1.55-1.77,0-.99,.75-1.96,2.34-1.96,.65,0,1.3,.17,1.95,.54v1.75h-.34c-.32-1.24-.8-1.8-1.73-1.8-.85,0-1.32,.46-1.32,1.15s.52,.98,1.05,1.19l.77,.3c1.17,.46,1.78,.92,1.78,1.83,0,1.2-1.04,2.09-2.49,2.09Zm8.66-5.96c0-.29-.08-.43-.26-.49-.09-.03-.35-.04-.58-.06v-.4h2.69v.4c-.14,0-.47,.02-.58,.06-.2,.06-.26,.2-.26,.49v4.87c0,.29,.08,.43,.26,.49,.09,.03,.35,.04,.58,.06v.4h-2.69v-.4c.14,0,.47-.02,.58-.06,.2-.06,.26-.2,.26-.49v-2.31h-3.17v2.31c0,.29,.08,.43,.26,.49,.09,.03,.35,.04,.58,.06v.4h-2.69v-.4c.14,0,.47-.02,.58-.06,.2-.06,.26-.2,.26-.49v-4.87c0-.29-.08-.43-.26-.49-.09-.03-.35-.04-.58-.06v-.4h2.69v.4c-.14,0-.47,.02-.58,.06-.2,.06-.26,.2-.26,.49v2.04h3.17v-2.04Zm4.63-.08v3.59c0,1.26,.51,1.93,1.68,1.93,1.31,0,1.74-.82,1.74-1.97v-3.21c-.02-.33-.14-.53-.31-.64-.17-.11-.38-.18-.62-.2v-.36h2.5v.36c-.2,.03-.39,.08-.56,.17-.21,.12-.37,.33-.38,.7v3.2c0,1.48-.81,2.47-2.59,2.47-1.5,0-2.47-.71-2.47-2.36v-3.59c0-.27-.08-.44-.26-.49-.14-.04-.39-.05-.58-.06v-.4h2.69v.4c-.28,.03-.44,.02-.58,.06-.17,.05-.25,.19-.26,.41Zm9.11-.54c-1.64,0-2.18,1.4-2.18,3.06,0,1.79,.6,3.03,2.16,3.03,1.06,0,1.58-.83,1.82-1.7h.34v1.49c-.54,.44-1.36,.69-2.17,.69-2.01,0-3.3-1.51-3.3-3.47,0-2.09,1.43-3.59,3.39-3.59,.74,0,1.48,.19,2.08,.53v1.75h-.34c-.28-1.01-.73-1.79-1.8-1.79Zm4.61,5.96c.09,.02,.33,.05,.56,.07v.4h-2.27v-.4c.14,0,.34-.07,.45-.11,.2-.06,.3-.2,.39-.44l2.28-5.94h.46l2.1,5.94c.09,.26,.2,.38,.39,.44,.11,.04,.31,.1,.45,.11v.4h-2.69v-.4c.22-.02,.46-.05,.56-.07,.2-.04,.37-.2,.28-.48l-.46-1.4h-2.24l-.53,1.4c-.09,.23,.02,.42,.28,.48Zm1.45-5.04l-1.01,2.65h1.88l-.87-2.65Zm4.05,5.51v-.4c.14,0,.47-.02,.58-.06,.2-.06,.26-.2,.26-.49v-4.87c0-.29-.08-.43-.26-.49-.09-.03-.35-.04-.58-.06v-.4h4.81v1.63h-.35c-.24-.94-.58-1.14-1.42-1.14h-1.18v2.54h.98c.29,0,.43-.08,.49-.26,.03-.09,.04-.35,.06-.58h.4v2.17h-.4c0-.14-.02-.47-.06-.58-.06-.2-.2-.26-.49-.26h-.98v2.76h1.31c.96,0,1.28-.43,1.65-1.54l.31,.04-.13,1.99h-5Zm11.8-6.27h-1.18v2.73h.98c.29,0,.43-.08,.49-.26,.03-.09,.04-.35,.06-.58h.4v2.17h-.4c0-.14-.02-.47-.06-.58-.06-.2-.2-.26-.49-.26h-.98v2.11c0,.29,.08,.43,.26,.49,.09,.03,.35,.04,.58,.06v.4h-2.69v-.4c.14,0,.47-.02,.58-.06,.2-.06,.26-.2,.26-.49v-4.87c0-.29-.08-.43-.26-.49-.09-.03-.35-.04-.58-.06v-.4h4.81v1.63h-.35c-.24-.94-.58-1.14-1.42-1.14Zm4.54,.46v4.87c0,.29,.08,.43,.26,.49,.09,.03,.35,.04,.58,.06v.4h-2.69v-.4c.14,0,.47-.02,.58-.06,.2-.06,.26-.2,.26-.49v-4.87c0-.29-.08-.43-.26-.49-.09-.03-.35-.04-.58-.06v-.4h2.69v.4c-.14,0-.47,.02-.58,.06-.2,.06-.26,.2-.26,.49Zm1.91,5.82v-.4c.14,0,.47-.02,.58-.06,.2-.06,.26-.2,.26-.49v-4.87c0-.29-.08-.43-.26-.49-.09-.03-.35-.04-.58-.06v-.4h2.69v.4c-.14,0-.47,.02-.58,.06-.2,.06-.26,.2-.26,.49v5.33h1.01c.96,0,1.28-.43,1.65-1.54l.31,.04-.13,1.99h-4.7Zm7.65-6.76l2.13,4.05,2.19-4.05h1.85v.4c-.14,0-.47,.02-.58,.06-.2,.06-.26,.2-.26,.49v4.87c0,.29,.08,.43,.26,.49,.09,.03,.35,.04,.58,.06v.4h-2.69v-.4c.14,0,.47-.02,.58-.06,.2-.06,.26-.2,.26-.49v-4.68l-2.21,4.2h-.33l-2.2-4.19v4.33c0,.38,.12,.6,.31,.72,.17,.11,.38,.18,.62,.21v.36h-2.5v-.36c.2-.03,.39-.08,.56-.17,.22-.12,.38-.35,.38-.76v-4.53c0-.29-.08-.43-.26-.49-.09-.03-.35-.04-.58-.06v-.4h1.88Zm9.44,6.91c-.63,0-1.4-.17-2.05-.54v-1.73h.25c.41,1.28,1.09,1.73,1.97,1.73,.93,0,1.36-.5,1.36-1.13,0-.74-.59-1.1-1.18-1.34l-.82-.32c-.9-.35-1.55-.85-1.55-1.77,0-.99,.75-1.96,2.34-1.96,.65,0,1.3,.17,1.95,.54v1.75h-.34c-.32-1.24-.8-1.8-1.73-1.8-.85,0-1.32,.46-1.32,1.15s.52,.98,1.05,1.19l.77,.3c1.17,.46,1.78,.92,1.78,1.83,0,1.2-1.04,2.09-2.49,2.09Z"/>
</svg>