<svg height="316.227766" viewBox="0 0 329 329" width="316.227766" xmlns="http://www.w3.org/2000/svg"><g fill="none" stroke="#ffa880" stroke-width="2"><path d="m117.95 47.76q.6-2.18 1.63-.17c1.74 3.36 7.06 13.57 5.72 16.54a.79.79 0 0 0 .12.83q1.45 1.72 3.26 3.1c2.2 1.67 5.98.52 8.31-.33 1.39-.51 2.45-2.13 2.77-3.48q.8-3.49 1.67-7.03c1.13-4.58 1.29-9.52 2.22-14.33q.65-3.33 1.18-6.82c.79-5.17 2.23-10.17 2.37-15.41q.01-.35-.28-.54-.15-.1-.32-.06-.42.1-.49.54l-.31 2.14q-.03.25-.29.23l-.44-.03q-.57-.04-.57-.62l-.01-2.05q-.01-.52-.49-.72l-2.83-1.17q-.44-.18-.51.29-.41 3-2.4 3.92c-1.26.58-2.03 2.67-2.22 3.88q-1.4 9.36-3.49 19.61-.41 2.01-1.19.12-3.75-9.08-5.61-17c-.62-2.66-2.41-4.74-2.31-7.49a1.1 1.1 0 0 0 -1.2-1.14q-2.33.22-4.6-.13c-3.36-.51-6.61 1.74-7.15 5.03q-2.3 14.17-7.02 40.65-.79 4.42 3.31 5.32.51.11.99-.11c2.52-1.15 5.41-1.32 6.1-4.67 1.27-6.27 2.3-12.47 4.08-18.9"/><path d="m36.2 68.98-.09.92a1.01 1-73.6 0 0 .52.96l2.83 1.57q.65.35.88-.35c1.05-3.22 3.9-4.31 4.63-7.61q1-4.52 2.63-8.86c.55-1.47.77-2.96 1.18-4.45q.15-.53.7-.58l8.38-.78q.54-.05.92-.43.46-.45.61-1.13.13-.62.7-.91 1.95-1 3.05-2.93.54-.93-.49-.61-1.11.34-2.21.23-1.14-.11-.38-.97 1.03-1.15.34-2.21-.29-.45-.81-.53c-3.36-.56-5.4-1.67-8.81-.24a.49.49 0 0 1 -.67-.52l1.26-8.16q.1-.65.75-.7l16.89-1.25a.79.79 0 0 0 .69-1.04q-.35-1.04.72-1.34 2.41-.67 4.38-1.82 2.4-1.4-.36-1.05-1.97.24-3.72-.37a.79.79 0 0 1 -.25-1.35q.73-.6 1.65-.77.54-.1.25-.56-.33-.5-.9-.57c-3.05-.36-5.93-1.39-8.98-1.38-6.06 0-12.63.95-18.47-.15q-.66-.13-.56.53c.5 3.3-4.2 3.21-6.18 3.49q-.69.1-.71.79l-.23 5.75a1.71 1.7 16.6 0 0 .83 1.53q.98.59.97 1.61-.21 15.03-3.34 29.7c-.51 2.41-.61 4.86-.94 7.26q-.13.91.62.38.72-.49 1.23-1.27.58-.86.49.17"/><path d="m271.06 21.42q-.16.15-.2.38-4.07 23.52-8.25 46.99a.38.37 5.1 0 0 .37.44h29.75q.72 0 .85-.71l1.67-9.26a.5.49-85.6 0 0 -.49-.58l-19.11.05q-.84.01-.7-.83l1.32-7.87q.14-.8.95-.8h15.21q.68 0 .79-.67l1.56-9.14a.45.44 4.9 0 0 -.44-.52l-15.32.05a.6.59 4.9 0 1 -.59-.69l1.19-7.25a.65.64-85.2 0 1 .63-.54h19.56q.53 0 .62-.53l1.5-9.31q.11-.64-.55-.65l-29.41-.1q-.44 0-.62.4-.22.48-.23 1.01 0 .07-.06.13"/><path d="m174.35 31.26-1.18 6.8a.1.09 4.8 0 0 .1.11q4.77.12 9.63.05a.39.37 7.5 0 0 .35-.26q1.26-4.06 1.64-8.93c.55-7.04-3.56-9.34-9.77-9.15q-5.71.17-10.93.03c-8.38-.22-11.78 4.8-13 12.47q-1.89 11.95-4.2 23.78c-1.3 6.65-.46 12.87 7.76 13.03q10.88.21 13.75-.01c10.57-.79 11.24-9.15 12.57-17.59a.54.54 0 0 0 -.54-.62l-9.3.01a.41.41 0 0 0 -.4.34l-1.04 5.91a2.05 2.05 0 0 1 -2.01 1.69l-8.96.05q-1.94.01-1.61-1.91l4.5-25.55a1.54 1.54 0 0 1 1.52-1.28l10.27.02a.87.86 5.1 0 1 .85 1.01"/><path d="m207.12 69.14c5.52-.16 10.15-3.96 11.15-9.62q2.33-13.21 5.06-28.54c1.29-7.31-1.86-11.29-9.27-11.09q-6.27.17-12.24.03c-7.97-.19-11.47 4.5-12.73 11.9q-2.41 14.16-4.58 26.17-1.99 11.04 8.84 11.21 7.71.13 13.77-.06"/><path d="m226.22 58.69-2.44.04q-.75.02-.87.75l-1.52 9a.65.65 0 0 0 .65.76q10.42-.05 23.46.03c8.36.04 12.23-3.82 13.61-11.88q2.52-14.72 4.65-26.84c1.01-5.72-1.02-10.62-7.6-10.61q-12.97.03-25.67.01-.59 0-.69.58l-1.54 9.05q-.12.68.57.67l2.38-.04a.64.64 0 0 1 .64.76l-4.73 26.96q-.13.75-.9.76"/><path d="m98.29 68.66q2.19-.77 1.89-3.34-1.68-14.55-2.95-29.65-.31-3.72-.1-7.45c.12-2.27-.21-4.63-.69-6.85q-.24-1.13-1.37-.91-3.1.6-6.03.04c-3.07-.59-7.29-.02-8.84 3.2q-11.88 24.73-22.82 41.9c-1.11 1.74-.55 3.7.61 5.28q.7.96 1.74.38l2.79-1.54q.49-.27.97.04.64.41.9 1.05a.68.68 0 0 0 1.12.21q6.01-6.34 10.66-13.07.41-.6 1.13-.76 4.34-.94 9.18-.93a1.68 1.67 88.3 0 1 1.66 1.57q.33 5.54 1.33 10.9.11.63.6.93.74.44 1.63.18.72-.22 1.16.39l.7.95a1.32 1.32 0 0 0 2.04.11l1.91-2.11q.32-.36.78-.52"/><path d="m67.69 101.77a.38.37 22 0 0 .26.61l1.77.16q.62.05.69-.58l.09-.86q.07-.66-.58-.59-1.33.15-2.23 1.26"/><path d="m88.06 104.08-4.58-.37a.18.18 0 0 0 -.19.16l-.01.07a2.14 2.01 4.7 0 0 1.97 2.18l.68.05a2.14 2.01 4.7 0 0 2.29-1.82l.01-.07a.18.18 0 0 0 -.17-.2"/><path d="m118.56 200.65q-.02-.06.04-.08 2.63-.8 4.24-2.52.38-.4.89-.2.29.11.49.36a1.23 1.22 64.7 0 0 1.16.42q1.22-.23 1.44-1.67.08-.5-.22-.91-1.5-2.06-4.14-1.67-.55.08-.23-.37.33-.48.89-.62.64-.16 1.29.01 2.7.71 4.15-.97.45-.52 1.14-.53 1.56-.02 3.15-.11.64-.04.9-.56.27-.53-.31-.61-3.55-.48-6.87.04-1.43.23-.44-.84.51-.55 1.3-.71 2.89-.58.27-1.93-.89-.45-1.76-.58-3.25-.5-6.36-1.51c-3.15-1.02-5.19.75-8.22.36q-.45-.06-.57-.5-.32-1.24-1.44-2.27-.44-.4-1.03-.3-1.84.31-3.53 1.14-.77.38-1.59.09-.7-.26.05-.33.54-.05 1.01-.3.7-.39.1-.93-.31-.28-.73-.15-.54.17-.88.61c-1.37 1.78-4.8 1.93-6.79 2.02q-.57.03-.92.49c-.58.76-1.17 1.15-2.13 1.34q-2.39.48-4.96 1.02a.58.57 87.1 0 1 -.69-.63q.22-1.82.67-3.61 4.63-18.66 6.38-34.29.05-.5.55-.49 10 .02 19.95-1.1 13.59-1.54 25.62-2.59c3.79-.34 8.75-.61 12.51.43q2.23.62 4.04-.6c1.67-1.14 3.44-1.02 5.32-1.35a.48.48 0 0 1 .56.54c-.22 1.62-.84 3.17-1.12 4.75q-8.54 48.24-18.38 104.22c-1.09 6.21-2.74 13.31-2.58 18.99q.66 22.65 20.47 28.69 5.12 1.57 17.21 1.43 20.46-.22 41.5.03 9.11.11 14.6-.96c13.57-2.63 24.36-11.83 30.38-24.18q3.07-6.31 5.11-18.75 2.01-12.26 4.36-25.18.14-.78-.65-.78h-37.76a.51.51 0 0 0 -.5.43q-2.06 12.34-4.36 24.45-1.15 6.03-8.13 6.06-16.77.07-36.66 0c-3.89-.01-5.49-1.71-4.8-5.64q8.67-49.67 17.55-99.62c.76-4.28 3.73-6.52 7.96-6.47q19.05.23 37.55.03c2.99-.03 4.77 2 4.25 5.17q-2.09 12.66-4.39 25.21-.12.66.55.66l37.72-.01a.63.62-85 0 0 .61-.52q3.09-16.44 5.59-31.72c2.76-16.88-3.73-32.16-21.25-36.59q-3.57-.91-7.34-.91-27.98.03-54.36-.06c-11.48-.04-21.08 3.04-29.64 10.43q-2.44 2.11-5.18.39-.73-.46-1.56-.23-2.36.63-4.21-.13c-2.83-1.16-7.76-.12-10.63.4q-.2.04-.21-.16l-.01-.3q-.01-.08.07-.1c2.26-.66 4.26-.63 6.45-1.67q2.11-1 4.44-.07.67.27.96-.39c1.8-4.11-4.25-3.93-6.39-4.01q-1.45-.05-.22-.81 1.15-.71 2.52-.43 2.89.59 5.59.48a.77.77 0 0 0 .72-.57q.32-1.15 1.5-1.04 3.47.34 7.64-.01.61-.06.41-.64-.29-.84-1.21-.88-5.94-.27-12.24-.09a.42.41 3.4 0 1 -.43-.48l.05-.3a.89.88 7.9 0 1 .97-.73q2.66.27 4.24-.26 2.56-.85-.1-1.31c-2.21-.39-4.1-1.16-6.43-1.02-1.59.09-4.04.25-5.45-.62-1.42-.89-2.55-1.59-4.27-1.91q-9.36-1.72-12.44-1.7-20.21.14-39.92 2.12-1.31.13-2.69-.35-.56-.19-1.04.16-.82.59-1.84.7-6.2.65-12.35 1.52-.73.11-1.37-.23-.45-.23-.79-.62-.56-.61-1.36-.37-4.99 1.51-10.09 1.82-.51.03-.47-.48.03-.42.36-.69.84-.67 1.92-.84 3.41-.55 7.13-.71a.29.29 0 0 0 .24-.44l-.14-.24a.66.64 75.7 0 0 -.52-.32c-2.14-.11-4.06.17-6.2-.26q-3.87-.77-8.48-.55c-1.16.06-1.64 1.19-1.52 2.2a.4.39-13.5 0 0 .53.32l1.63-.58q.53-.19.86.27.14.2.09.49-.11.57.27 1 .32.35.79.45.78.16.14.63-.69.5-1.52.63-1.23.19-1.28 1.39-.1 2.75-1.8 5.47a1.53 1.53 0 0 1 -.84.65q-1.94.59-3.93.82-7.56.89-14.75 1.55-.53.05-.89.43-3.38 3.53-3.76 6.93-.9 7.9-.82 15.82.02 2.46.82 4.89c.85 2.58 4.02 3.81 6.31 4.71a.9.89 12.5 0 1 .56.87q-1.37 28.79-3.75 58.08c-1.86 22.96-6.58 45.31-11.41 67.75-.61 2.83-.57 5.7-1.35 8.45q-.19.67.42.99.62.33.84.95a1.37 1.34 52.5 0 1 -.15 1.23q-1.92 2.91-1.48 5.79c.32 2.07-.39 3.88-1.13 5.77q-.29.73.45.96.9.28 1.64.93.75.66.51-.31l-.31-1.19a1.37 1.35-36.5 0 1 .16-1.02q1.69-2.7 1.94-5.45c.31-3.52 1.88-6.71 2.43-10.23.25-1.68 1.31-3.01 1.69-4.75q1.6-7.36 3.02-14.77.15-.76.41-.03.64 1.72.19 3.64-1.82 7.84-3.85 16.49-.72 3.07-.9 6.11-.04.6.25.07.06-.12.13-.23.16-.27.16-.57-.01-.6.05-1.22.05-.59.65-.65 1.23-.12 2.42.46.56.28.11.72l-.31.32a1.54 1.53 74.3 0 0 -.43.77q-1.03 4.28-1.38 8.32-.12 1.34.63.23 1.94-2.87 1.07-6.28-.13-.49.04-.97.74-2.04 2.25-3.35.39-.35.55-.86.28-.94.83-1.68.53-.7.46.17c-.14 1.6-1.04 2.96-1.22 4.56q-.35 3.11-.75 6.31c-.18 1.5-1.1 2.41-1.31 3.84q-.07.46.4.46h.32q.73 0 .8-.72l.2-1.97q.06-.55.55-.28 1.33.72.79 2.04c-.72 1.78-2.62 4.01-1.74 5.98a.42.42 0 0 0 .69.11q2.3-2.51 5.35-4.48.45-.29.87.03.91.69 1.06 1.74a1.28 1.25 61.6 0 1 -.28.97q-.53.63-.64 1.44-.09.67.53.43 1.15-.45 1.28-1.96.06-.64.67-.47l.29.08q.79.23.71 1.05-.36 3.52-1.16 6.85-.03.1.05.17l.24.18a.35.34-61.3 0 0 .54-.16q2.23-6.5 3.73-14.09.56-2.83 5.37-15.12.12-.31.48-.33.65-.02.52.61c-.29 1.37-.8 2.51-.84 3.95q-.19 7.28-2 15.18-.08.36.27.46l.24.07q.19.06.26-.13 3.76-10.18 6.14-21.08.11-.51.6-.35l.27.08q.18.06.14.24-.93 4.56-1.43 7.52-.14.82.66 1.13.63.25.96-.35.42-.74.47-1.6a2.02 2 61.6 0 1 .27-.93c.81-1.44 1.81-2.5 2.26-4.16 1.47-5.42 3.07-10.73 4.27-16.17q1.62-7.38 3.49-15 .24-.99.22-2.01c-.07-2.56 1.21-2.74 2.89-4.02q.35-.27.36-.71.05-1.58.55-3.09 1.21-3.66 1.39-7.91.03-.7.52-1.2 2.45-2.46 1.54-7.04a.7.7 0 0 0 -1.05-.47q-.23.14-.4.37-.14.2-.16.44-.22 2.67-.27 5.52-.01.19-.2.15-.04-.01-.09-.03-.17-.08-.21-.27-.6-3.41-.51-6.77a.56.55-4.5 0 1 .46-.53q16.68-2.98 33.07-3.65c4.08-.17 7.76-1.45 11.66-2.39a1.39 1.38 89.4 0 0 1.04-1.07l.1-.47q.18-.87-.71-.81-5.01.35-9.47-.75-.37-.09-.31-.46l.04-.28q.01-.05.07-.05 3.64.2 6.75-.8a.87.87 0 0 0 .6-.72c.43-3 2.81-2.73 5.03-2.2q1.88.46 3.9.14.86-.13.07-.5-1.58-.73-3.2-.11a1.03 1.03 0 0 1 -1.39-.77q-.33-1.7-2.1-1.24a.37.36-8.9 0 1 -.45-.32l-.02-.26a.07.06 89.6 0 1 .07-.08q3.35.34 6.93-.7.48-.13.35-.62-.36-1.45.77-2.31.47-.36 1.06-.35 2.42.03 5-1.3.17-.08.1-.26l-.23-.56q-.05-.14-.19-.1-2.9.82-3.69.8-5.59-.15-.22-2.23 2.29-.89 6.59-.64a.43.42-80.7 0 0 .43-.32l.1-.4q.09-.38-.3-.38-4.33.07-8.89.79c-2.33.36-4.77-.02-7-.69-2.33-.71-4.68-.1-6.92.6q-.38.12-.48-.26z"/><path d="m38.38 119.96a.47.47 0 0 0 -.67-.36q-.63.29-.56.99.09.88.6 1.57.36.49.51-.1.26-1.06.12-2.1"/><path d="m173.315 121.0798a1.07.7 12.4 0 0 -.8947-.9135 1.07.7 12.4 0 0 -1.1953.4539 1.07.7 12.4 0 0 .8947.9135 1.07.7 12.4 0 0 1.1953-.4539"/><path d="m92.0523 179.9113a2.38.35 103.8 0 0 .9076-2.2278 2.38.35 103.8 0 0 .2278-2.3948 2.38.35 103.8 0 0 -.9076 2.2278 2.38.35 103.8 0 0 -.2278 2.3948"/><path d="m92.87 183.28a.36.35 46.8 0 0 .61.02q.37-.55.22-1.16a.48.47 54.3 0 0 -.87-.15q-.36.58.04 1.29"/><path d="m130.59 198.65q.12-1.03-.32-1.9-.1-.18-.3-.23-.22-.06-.45-.04-.56.07-.4.61.26.94.77 1.73.59.89.7-.17"/><path d="m135.8239 207.9851a.77.54-44 0 0 -.929.1465.77.54-44 0 0 -.1788.9233.77.54-44 0 0 .929-.1465.77.54-44 0 0 .1788-.9233"/><path d="m272.83 45.17a.25.25 0 0 1 .24-.2l16.21-.25a.25.25 0 0 0 .22-.35l-.31-.78a.25.25 0 0 0 -.23-.15l-15.69-.29a.25.25 0 0 1 -.25-.3l3.14-16.68a.25.25 0 0 1 .24-.2l19.73-.37a.25.25 0 0 0 .25-.24l.02-.51a.25.25 0 0 0 -.25-.26l-21.11-.27a.25.25 0 0 0 -.25.21l-6.86 39.7a.25.25 0 0 0 .25.29l21.17-.17a.25.25 0 0 0 .25-.24l.03-.48a.25.25 0 0 0 -.25-.26l-19.73-.08a.25.25 0 0 1 -.24-.3z"/><path d="m156.66 34.92q.46-2.61 1.16-5.17c.65-2.4 2.53-3.82 4.93-3.85q5.9-.09 12.39-.06 2.12.01 2.99 1.02c1.62 1.89.72 3.94.44 6.1q-.04.29.14.52.14.17.36.17.54-.01.7-.52c1.12-3.55 1.3-8.39-3.74-8.71q-6.32-.39-12.5-.2c-2.98.09-6.22 1.76-7.06 4.75q-.82 2.93-1.31 6.07-1.85 11.67-3.99 23.51c-.55 3.03 1.2 6 4.46 5.94q5.83-.11 12.04-.04c5.5.07 7.43-3.36 8.19-8.32a.5.49-74.3 0 0 -.29-.52l-.31-.13q-.66-.28-.8.42-.21 1.1-.41 2.32-.87 5.32-6.3 5.24-5.98-.09-11.98-.17a3.61 3.6-84.4 0 1 -3.5-4.27q2.32-12.43 4.39-24.1"/><path d="m188.82 58.53a5.21 5.21 0 0 0 5.34 6.15l14.44-.58a5.21 5.21 0 0 0 4.91-4.27l5.43-29.49a5.21 5.21 0 0 0 -5.27-6.15l-14.4.41a5.21 5.21 0 0 0 -4.97 4.26z"/><path d="m229.8 63.26-3.85.18q-.44.02-.33.45l.07.28a.35.34 82.2 0 0 .33.26q10.2.03 20.68.03 6.77 0 7.94-6.53 2.54-14.2 4.97-28.28a4.36 4.36 0 0 0 -4.31-5.1h-22.32q-.35 0-.36.35l-.01.34q-.01.38.38.39l3.07.09q1.06.03.88 1.08l-6.25 35.67q-.13.75-.89.79"/><path d="m80.51 46.51a.34.34 0 0 0 .31.47l6.02-.07a.34.34 0 0 0 .33-.35l-.64-11.96a.34.34 0 0 0 -.65-.12z"/><path d="m190.08 58.81a3.88 3.88 0 0 0 3.88 4.59l14.58-.22a3.88 3.88 0 0 0 3.76-3.19l5.4-29.69a3.88 3.88 0 0 0 -3.91-4.58l-14.51.35a3.88 3.88 0 0 0 -3.72 3.18z"/><path d="m254.63 50.86q1.91-9.99 3.39-19.36c.58-3.68-.02-5.72-4.28-5.77q-7.16-.09-13.62-.01-1.88.02-2.21 1.87-3.07 17.51-5.91 33.45c-.1.54-.37.94-.57 1.42a.6.6 0 0 0 .55.83q7.63.14 15.87-.02 3.92-.08 5.01-3.4c.94-2.88 1.19-6.01 1.77-9.01"/><path d="m237.02 57.53a1.06 1.06 0 0 0 1.06 1.24l10.05-.15a1.06 1.06 0 0 0 1.03-.87l4.59-26.21a1.06 1.06 0 0 0 -1.04-1.24l-9.98-.12a1.06 1.06 0 0 0 -1.06.88z"/><path d="m194.94 57.34a1.4 1.4 0 0 0 1.4 1.64l10.57-.12a1.4 1.4 0 0 0 1.36-1.15l4.61-25.87a1.4 1.4 0 0 0 -1.39-1.65l-10.61.07a1.4 1.4 0 0 0 -1.37 1.16z"/><path d="m161.408 120.163a.98.56 100.7 0 0 .7323-.859.98.56 100.7 0 0 -.3683-1.067.98.56 100.7 0 0 -.7323.859.98.56 100.7 0 0 .3683 1.067"/><path d="m171.5892 125.9072a1.68.38-1.8 0 0 -1.6911-.327 1.68.38-1.8 0 0 -1.6673.4326 1.68.38-1.8 0 0 1.6911.327 1.68.38-1.8 0 0 1.6673-.4326"/><path d="m182.66 153.17c1.94-10.9 10.01-19.02 21.35-18.96q19.4.1 42.4-.08 9.41-.08 12.83 1.48 8.39 3.83 7.67 14.66-.38 5.64-2.32 14.2-.25 1.11.88 1.16l2.52.12q.94.04 1.13-.88c2.72-12.64 6.13-27.7-7.4-33.74q-4.21-1.88-13.73-1.75-19 .24-38.87.02-7.89-.09-12.8 1.47c-10.38 3.3-16.5 12.53-18.32 22.88q-9.07 51.67-18.78 106.44c-2.51 14.14 3.57 24.59 19.14 24.52q18.87-.08 40.1.07 10.45.08 15.37-1.51c15.17-4.89 18.54-18.69 20.24-33.72q.07-.6-.53-.58l-3.1.05q-.71.02-.82.72-1.51 9.55-2.17 12.25-4.4 18.02-23.12 18.01-22.86-.01-45.59-.04c-6.85-.01-13.23-3.02-14.87-10.17q-1-4.37-.29-8.46 9.21-52.61 19.08-108.16"/><path d="m167.6971 132.5181a1.77.52-3.3 0 0 -1.797-.4172 1.77.52-3.3 0 0 -1.7372.621 1.77.52-3.3 0 0 1.797.4172 1.77.52-3.3 0 0 1.7372-.621"/><path d="m163.21 137.39q-.77.1-1.28.66-.39.43-.97.47c-2.64.2-7.66-.31-9.97 1.02q-.78.45.11.45 5.34.01 10.88.52c2.9.27 3.33-2.91 4.16-4.92a.46.45-78.6 0 0 -.41-.63q-2.57.01-2.37 2.25.01.16-.15.18"/><path d="m47.57 300.5q-.41.81-.77 1.57-.52 1.09.58.6 1.42-.64.68-2.75-.24-.68-.46 0-.09.29-.03.58"/></g><path d="m0 0h329v329h-329zm117.95 47.76q.6-2.18 1.63-.17c1.74 3.36 7.06 13.57 5.72 16.54a.79.79 0 0 0 .12.83q1.45 1.72 3.26 3.1c2.2 1.67 5.98.52 8.31-.33 1.39-.51 2.45-2.13 2.77-3.48q.8-3.49 1.67-7.03c1.13-4.58 1.29-9.52 2.22-14.33q.65-3.33 1.18-6.82c.79-5.17 2.23-10.17 2.37-15.41q.01-.35-.28-.54-.15-.1-.32-.06-.42.1-.49.54l-.31 2.14q-.03.25-.29.23l-.44-.03q-.57-.04-.57-.62l-.01-2.05q-.01-.52-.49-.72l-2.83-1.17q-.44-.18-.51.29-.41 3-2.4 3.92c-1.26.58-2.03 2.67-2.22 3.88q-1.4 9.36-3.49 19.61-.41 2.01-1.19.12-3.75-9.08-5.61-17c-.62-2.66-2.41-4.74-2.31-7.49a1.1 1.1 0 0 0 -1.2-1.14q-2.33.22-4.6-.13c-3.36-.51-6.61 1.74-7.15 5.03q-2.3 14.17-7.02 40.65-.79 4.42 3.31 5.32.51.11.99-.11c2.52-1.15 5.41-1.32 6.1-4.67 1.27-6.27 2.3-12.47 4.08-18.9zm-81.75 21.22-.09.92a1.01 1-73.6 0 0 .52.96l2.83 1.57q.65.35.88-.35c1.05-3.22 3.9-4.31 4.63-7.61q1-4.52 2.63-8.86c.55-1.47.77-2.96 1.18-4.45q.15-.53.7-.58l8.38-.78q.54-.05.92-.43.46-.45.61-1.13.13-.62.7-.91 1.95-1 3.05-2.93.54-.93-.49-.61-1.11.34-2.21.23-1.14-.11-.38-.97 1.03-1.15.34-2.21-.29-.45-.81-.53c-3.36-.56-5.4-1.67-8.81-.24a.49.49 0 0 1 -.67-.52l1.26-8.16q.1-.65.75-.7l16.89-1.25a.79.79 0 0 0 .69-1.04q-.35-1.04.72-1.34 2.41-.67 4.38-1.82 2.4-1.4-.36-1.05-1.97.24-3.72-.37a.79.79 0 0 1 -.25-1.35q.73-.6 1.65-.77.54-.1.25-.56-.33-.5-.9-.57c-3.05-.36-5.93-1.39-8.98-1.38-6.06 0-12.63.95-18.47-.15q-.66-.13-.56.53c.5 3.3-4.2 3.21-6.18 3.49q-.69.1-.71.79l-.23 5.75a1.71 1.7 16.6 0 0 .83 1.53q.98.59.97 1.61-.21 15.03-3.34 29.7c-.51 2.41-.61 4.86-.94 7.26q-.13.91.62.38.72-.49 1.23-1.27.58-.86.49.17zm234.86-47.56q-.16.15-.2.38-4.07 23.52-8.25 46.99a.38.37 5.1 0 0 .37.44h29.75q.72 0 .85-.71l1.67-9.26a.5.49-85.6 0 0 -.49-.58l-19.11.05q-.84.01-.7-.83l1.32-7.87q.14-.8.95-.8h15.21q.68 0 .79-.67l1.56-9.14a.45.44 4.9 0 0 -.44-.52l-15.32.05a.6.59 4.9 0 1 -.59-.69l1.19-7.25a.65.64-85.2 0 1 .63-.54h19.56q.53 0 .62-.53l1.5-9.31q.11-.64-.55-.65l-29.41-.1q-.44 0-.62.4-.22.48-.23 1.01 0 .07-.06.13zm-96.71 9.84-1.18 6.8a.1.09 4.8 0 0 .1.11q4.77.12 9.63.05a.39.37 7.5 0 0 .35-.26q1.26-4.06 1.64-8.93c.55-7.04-3.56-9.34-9.77-9.15q-5.71.17-10.93.03c-8.38-.22-11.78 4.8-13 12.47q-1.89 11.95-4.2 23.78c-1.3 6.65-.46 12.87 7.76 13.03q10.88.21 13.75-.01c10.57-.79 11.24-9.15 12.57-17.59a.54.54 0 0 0 -.54-.62l-9.3.01a.41.41 0 0 0 -.4.34l-1.04 5.91a2.05 2.05 0 0 1 -2.01 1.69l-8.96.05q-1.94.01-1.61-1.91l4.5-25.55a1.54 1.54 0 0 1 1.52-1.28l10.27.02a.87.86 5.1 0 1 .85 1.01zm32.77 37.88c5.52-.16 10.15-3.96 11.15-9.62q2.33-13.21 5.06-28.54c1.29-7.31-1.86-11.29-9.27-11.09q-6.27.17-12.24.03c-7.97-.19-11.47 4.5-12.73 11.9q-2.41 14.16-4.58 26.17-1.99 11.04 8.84 11.21 7.71.13 13.77-.06zm19.1-10.45-2.44.04q-.75.02-.87.75l-1.52 9a.65.65 0 0 0 .65.76q10.42-.05 23.46.03c8.36.04 12.23-3.82 13.61-11.88q2.52-14.72 4.65-26.84c1.01-5.72-1.02-10.62-7.6-10.61q-12.97.03-25.67.01-.59 0-.69.58l-1.54 9.05q-.12.68.57.67l2.38-.04a.64.64 0 0 1 .64.76l-4.73 26.96q-.13.75-.9.76zm-127.93 9.97q2.19-.77 1.89-3.34-1.68-14.55-2.95-29.65-.31-3.72-.1-7.45c.12-2.27-.21-4.63-.69-6.85q-.24-1.13-1.37-.91-3.1.6-6.03.04c-3.07-.59-7.29-.02-8.84 3.2q-11.88 24.73-22.82 41.9c-1.11 1.74-.55 3.7.61 5.28q.7.96 1.74.38l2.79-1.54q.49-.27.97.04.64.41.9 1.05a.68.68 0 0 0 1.12.21q6.01-6.34 10.66-13.07.41-.6 1.13-.76 4.34-.94 9.18-.93a1.68 1.67 88.3 0 1 1.66 1.57q.33 5.54 1.33 10.9.11.63.6.93.74.44 1.63.18.72-.22 1.16.39l.7.95a1.32 1.32 0 0 0 2.04.11l1.91-2.11q.32-.36.78-.52zm-30.6 33.11a.38.37 22 0 0 .26.61l1.77.16q.62.05.69-.58l.09-.86q.07-.66-.58-.59-1.33.15-2.23 1.26zm20.37 2.31-4.58-.37a.18.18 0 0 0 -.19.16l-.01.07a2.14 2.01 4.7 0 0 1.97 2.18l.68.05a2.14 2.01 4.7 0 0 2.29-1.82l.01-.07a.18.18 0 0 0 -.17-.2zm30.5 96.57q-.02-.06.04-.08 2.63-.8 4.24-2.52.38-.4.89-.2.29.11.49.36a1.23 1.22 64.7 0 0 1.16.42q1.22-.23 1.44-1.67.08-.5-.22-.91-1.5-2.06-4.14-1.67-.55.08-.23-.37.33-.48.89-.62.64-.16 1.29.01 2.7.71 4.15-.97.45-.52 1.14-.53 1.56-.02 3.15-.11.64-.04.9-.56.27-.53-.31-.61-3.55-.48-6.87.04-1.43.23-.44-.84.51-.55 1.3-.71 2.89-.58.27-1.93-.89-.45-1.76-.58-3.25-.5-6.36-1.51c-3.15-1.02-5.19.75-8.22.36q-.45-.06-.57-.5-.32-1.24-1.44-2.27-.44-.4-1.03-.3-1.84.31-3.53 1.14-.77.38-1.59.09-.7-.26.05-.33.54-.05 1.01-.3.7-.39.1-.93-.31-.28-.73-.15-.54.17-.88.61c-1.37 1.78-4.8 1.93-6.79 2.02q-.57.03-.92.49c-.58.76-1.17 1.15-2.13 1.34q-2.39.48-4.96 1.02a.58.57 87.1 0 1 -.69-.63q.22-1.82.67-3.61 4.63-18.66 6.38-34.29.05-.5.55-.49 10 .02 19.95-1.1 13.59-1.54 25.62-2.59c3.79-.34 8.75-.61 12.51.43q2.23.62 4.04-.6c1.67-1.14 3.44-1.02 5.32-1.35a.48.48 0 0 1 .56.54c-.22 1.62-.84 3.17-1.12 4.75q-8.54 48.24-18.38 104.22c-1.09 6.21-2.74 13.31-2.58 18.99q.66 22.65 20.47 28.69 5.12 1.57 17.21 1.43 20.46-.22 41.5.03 9.11.11 14.6-.96c13.57-2.63 24.36-11.83 30.38-24.18q3.07-6.31 5.11-18.75 2.01-12.26 4.36-25.18.14-.78-.65-.78h-37.76a.51.51 0 0 0 -.5.43q-2.06 12.34-4.36 24.45-1.15 6.03-8.13 6.06-16.77.07-36.66 0c-3.89-.01-5.49-1.71-4.8-5.64q8.67-49.67 17.55-99.62c.76-4.28 3.73-6.52 7.96-6.47q19.05.23 37.55.03c2.99-.03 4.77 2 4.25 5.17q-2.09 12.66-4.39 25.21-.12.66.55.66l37.72-.01a.63.62-85 0 0 .61-.52q3.09-16.44 5.59-31.72c2.76-16.88-3.73-32.16-21.25-36.59q-3.57-.91-7.34-.91-27.98.03-54.36-.06c-11.48-.04-21.08 3.04-29.64 10.43q-2.44 2.11-5.18.39-.73-.46-1.56-.23-2.36.63-4.21-.13c-2.83-1.16-7.76-.12-10.63.4q-.2.04-.21-.16l-.01-.3q-.01-.08.07-.1c2.26-.66 4.26-.63 6.45-1.67q2.11-1 4.44-.07.67.27.96-.39c1.8-4.11-4.25-3.93-6.39-4.01q-1.45-.05-.22-.81 1.15-.71 2.52-.43 2.89.59 5.59.48a.77.77 0 0 0 .72-.57q.32-1.15 1.5-1.04 3.47.34 7.64-.01.61-.06.41-.64-.29-.84-1.21-.88-5.94-.27-12.24-.09a.42.41 3.4 0 1 -.43-.48l.05-.3a.89.88 7.9 0 1 .97-.73q2.66.27 4.24-.26 2.56-.85-.1-1.31c-2.21-.39-4.1-1.16-6.43-1.02-1.59.09-4.04.25-5.45-.62-1.42-.89-2.55-1.59-4.27-1.91q-9.36-1.72-12.44-1.7-20.21.14-39.92 2.12-1.31.13-2.69-.35-.56-.19-1.04.16-.82.59-1.84.7-6.2.65-12.35 1.52-.73.11-1.37-.23-.45-.23-.79-.62-.56-.61-1.36-.37-4.99 1.51-10.09 1.82-.51.03-.47-.48.03-.42.36-.69.84-.67 1.92-.84 3.41-.55 7.13-.71a.29.29 0 0 0 .24-.44l-.14-.24a.66.64 75.7 0 0 -.52-.32c-2.14-.11-4.06.17-6.2-.26q-3.87-.77-8.48-.55c-1.16.06-1.64 1.19-1.52 2.2a.4.39-13.5 0 0 .53.32l1.63-.58q.53-.19.86.27.14.2.09.49-.11.57.27 1 .32.35.79.45.78.16.14.63-.69.5-1.52.63-1.23.19-1.28 1.39-.1 2.75-1.8 5.47a1.53 1.53 0 0 1 -.84.65q-1.94.59-3.93.82-7.56.89-14.75 1.55-.53.05-.89.43-3.38 3.53-3.76 6.93-.9 7.9-.82 15.82.02 2.46.82 4.89c.85 2.58 4.02 3.81 6.31 4.71a.9.89 12.5 0 1 .56.87q-1.37 28.79-3.75 58.08c-1.86 22.96-6.58 45.31-11.41 67.75-.61 2.83-.57 5.7-1.35 8.45q-.19.67.42.99.62.33.84.95a1.37 1.34 52.5 0 1 -.15 1.23q-1.92 2.91-1.48 5.79c.32 2.07-.39 3.88-1.13 5.77q-.29.73.45.96.9.28 1.64.93.75.66.51-.31l-.31-1.19a1.37 1.35-36.5 0 1 .16-1.02q1.69-2.7 1.94-5.45c.31-3.52 1.88-6.71 2.43-10.23.25-1.68 1.31-3.01 1.69-4.75q1.6-7.36 3.02-14.77.15-.76.41-.03.64 1.72.19 3.64-1.82 7.84-3.85 16.49-.72 3.07-.9 6.11-.04.6.25.07.06-.12.13-.23.16-.27.16-.57-.01-.6.05-1.22.05-.59.65-.65 1.23-.12 2.42.46.56.28.11.72l-.31.32a1.54 1.53 74.3 0 0 -.43.77q-1.03 4.28-1.38 8.32-.12 1.34.63.23 1.94-2.87 1.07-6.28-.13-.49.04-.97.74-2.04 2.25-3.35.39-.35.55-.86.28-.94.83-1.68.53-.7.46.17c-.14 1.6-1.04 2.96-1.22 4.56q-.35 3.11-.75 6.31c-.18 1.5-1.1 2.41-1.31 3.84q-.07.46.4.46h.32q.73 0 .8-.72l.2-1.97q.06-.55.55-.28 1.33.72.79 2.04c-.72 1.78-2.62 4.01-1.74 5.98a.42.42 0 0 0 .69.11q2.3-2.51 5.35-4.48.45-.29.87.03.91.69 1.06 1.74a1.28 1.25 61.6 0 1 -.28.97q-.53.63-.64 1.44-.09.67.53.43 1.15-.45 1.28-1.96.06-.64.67-.47l.29.08q.79.23.71 1.05-.36 3.52-1.16 6.85-.03.1.05.17l.24.18a.35.34-61.3 0 0 .54-.16q2.23-6.5 3.73-14.09.56-2.83 5.37-15.12.12-.31.48-.33.65-.02.52.61c-.29 1.37-.8 2.51-.84 3.95q-.19 7.28-2 15.18-.08.36.27.46l.24.07q.19.06.26-.13 3.76-10.18 6.14-21.08.11-.51.6-.35l.27.08q.18.06.14.24-.93 4.56-1.43 7.52-.14.82.66 1.13.63.25.96-.35.42-.74.47-1.6a2.02 2 61.6 0 1 .27-.93c.81-1.44 1.81-2.5 2.26-4.16 1.47-5.42 3.07-10.73 4.27-16.17q1.62-7.38 3.49-15 .24-.99.22-2.01c-.07-2.56 1.21-2.74 2.89-4.02q.35-.27.36-.71.05-1.58.55-3.09 1.21-3.66 1.39-7.91.03-.7.52-1.2 2.45-2.46 1.54-7.04a.7.7 0 0 0 -1.05-.47q-.23.14-.4.37-.14.2-.16.44-.22 2.67-.27 5.52-.01.19-.2.15-.04-.01-.09-.03-.17-.08-.21-.27-.6-3.41-.51-6.77a.56.55-4.5 0 1 .46-.53q16.68-2.98 33.07-3.65c4.08-.17 7.76-1.45 11.66-2.39a1.39 1.38 89.4 0 0 1.04-1.07l.1-.47q.18-.87-.71-.81-5.01.35-9.47-.75-.37-.09-.31-.46l.04-.28q.01-.05.07-.05 3.64.2 6.75-.8a.87.87 0 0 0 .6-.72c.43-3 2.81-2.73 5.03-2.2q1.88.46 3.9.14.86-.13.07-.5-1.58-.73-3.2-.11a1.03 1.03 0 0 1 -1.39-.77q-.33-1.7-2.1-1.24a.37.36-8.9 0 1 -.45-.32l-.02-.26a.07.06 89.6 0 1 .07-.08q3.35.34 6.93-.7.48-.13.35-.62-.36-1.45.77-2.31.47-.36 1.06-.35 2.42.03 5-1.3.17-.08.1-.26l-.23-.56q-.05-.14-.19-.1-2.9.82-3.69.8-5.59-.15-.22-2.23 2.29-.89 6.59-.64a.43.42-80.7 0 0 .43-.32l.1-.4q.09-.38-.3-.38-4.33.07-8.89.79c-2.33.36-4.77-.02-7-.69-2.33-.71-4.68-.1-6.92.6q-.38.12-.48-.26zm-80.18-80.69a.47.47 0 0 0 -.67-.36q-.63.29-.56.99.09.88.6 1.57.36.49.51-.1.26-1.06.12-2.1zm134.935 1.1198a1.07.7 12.4 0 0 -.8947-.9135 1.07.7 12.4 0 0 -1.1953.4539 1.07.7 12.4 0 0 .8947.9135 1.07.7 12.4 0 0 1.1953-.4539zm-81.2627 58.8315a2.38.35 103.8 0 0 .9076-2.2278 2.38.35 103.8 0 0 .2278-2.3948 2.38.35 103.8 0 0 -.9076 2.2278 2.38.35 103.8 0 0 -.2278 2.3948zm.8177 3.3687a.36.35 46.8 0 0 .61.02q.37-.55.22-1.16a.48.47 54.3 0 0 -.87-.15q-.36.58.04 1.29zm37.72 15.37q.12-1.03-.32-1.9-.1-.18-.3-.23-.22-.06-.45-.04-.56.07-.4.61.26.94.77 1.73.59.89.7-.17zm5.2339 9.3351a.77.54-44 0 0 -.929.1465.77.54-44 0 0 -.1788.9233.77.54-44 0 0 .929-.1465.77.54-44 0 0 .1788-.9233z" fill="#ff5000"/><g fill="#fff"><path d="m117.95 47.76c-1.78 6.43-2.81 12.63-4.08 18.9-.69 3.35-3.58 3.52-6.1 4.67q-.48.22-.99.11-4.1-.9-3.31-5.32 4.72-26.48 7.02-40.65c.54-3.29 3.79-5.54 7.15-5.03q2.27.35 4.6.13a1.1 1.1 0 0 1 1.2 1.14c-.1 2.75 1.69 4.83 2.31 7.49q1.86 7.92 5.61 17 .78 1.89 1.19-.12 2.09-10.25 3.49-19.61c.19-1.21.96-3.3 2.22-3.88q1.99-.92 2.4-3.92.07-.47.51-.29l2.83 1.17q.48.2.49.72l.01 2.05q0 .58.57.62l.44.03q.26.02.29-.23l.31-2.14q.07-.44.49-.54.17-.04.32.06.29.19.28.54c-.14 5.24-1.58 10.24-2.37 15.41q-.53 3.49-1.18 6.82c-.93 4.81-1.09 9.75-2.22 14.33q-.87 3.54-1.67 7.03c-.32 1.35-1.38 2.97-2.77 3.48-2.33.85-6.11 2-8.31.33q-1.81-1.38-3.26-3.1a.79.79 0 0 1 -.12-.83c1.34-2.97-3.98-13.18-5.72-16.54q-1.03-2.01-1.63.17z"/><path d="m35.71 68.81q-.51.78-1.23 1.27-.75.53-.62-.38c.33-2.4.43-4.85.94-7.26q3.13-14.67 3.34-29.7.01-1.02-.97-1.61a1.71 1.7 16.6 0 1 -.83-1.53l.23-5.75q.02-.69.71-.79c1.98-.28 6.68-.19 6.18-3.49q-.1-.66.56-.53c5.84 1.1 12.41.15 18.47.15 3.05-.01 5.93 1.02 8.98 1.38q.57.07.9.57.29.46-.25.56-.92.17-1.65.77a.79.79 0 0 0 .25 1.35q1.75.61 3.72.37 2.76-.35.36 1.05-1.97 1.15-4.38 1.82-1.07.3-.72 1.34a.79.79 0 0 1 -.69 1.04l-16.89 1.25q-.65.05-.75.7l-1.26 8.16a.49.49 0 0 0 .67.52c3.41-1.43 5.45-.32 8.81.24q.52.08.81.53.69 1.06-.34 2.21-.76.86.38.97 1.1.11 2.21-.23 1.03-.32.49.61-1.1 1.93-3.05 2.93-.57.29-.7.91-.15.68-.61 1.13-.38.38-.92.43l-8.38.78q-.55.05-.7.58c-.41 1.49-.63 2.98-1.18 4.45q-1.63 4.34-2.63 8.86c-.73 3.3-3.58 4.39-4.63 7.61q-.23.7-.88.35l-2.83-1.57a1.01 1-73.6 0 1 -.52-.96l.09-.92q.09-1.03-.49-.17z"/><path d="m271.12 21.29q.01-.53.23-1.01.18-.4.62-.4l29.41.1q.66.01.55.65l-1.5 9.31q-.09.53-.62.53h-19.56a.65.64-85.2 0 0 -.63.54l-1.19 7.25a.6.59 4.9 0 0 .59.69l15.32-.05a.45.44 4.9 0 1 .44.52l-1.56 9.14q-.11.67-.79.67h-15.21q-.81 0-.95.8l-1.32 7.87q-.14.84.7.83l19.11-.05a.5.49-85.6 0 1 .49.58l-1.67 9.26q-.13.71-.85.71h-29.75a.38.37 5.1 0 1 -.37-.44q4.18-23.47 8.25-46.99.04-.23.2-.38.06-.06.06-.13zm1.71 23.88a.25.25 0 0 1 .24-.2l16.21-.25a.25.25 0 0 0 .22-.35l-.31-.78a.25.25 0 0 0 -.23-.15l-15.69-.29a.25.25 0 0 1 -.25-.3l3.14-16.68a.25.25 0 0 1 .24-.2l19.73-.37a.25.25 0 0 0 .25-.24l.02-.51a.25.25 0 0 0 -.25-.26l-21.11-.27a.25.25 0 0 0 -.25.21l-6.86 39.7a.25.25 0 0 0 .25.29l21.17-.17a.25.25 0 0 0 .25-.24l.03-.48a.25.25 0 0 0 -.25-.26l-19.73-.08a.25.25 0 0 1 -.24-.3z"/><path d="m174.35 31.26a.87.86 5.1 0 0 -.85-1.01l-10.27-.02a1.54 1.54 0 0 0 -1.52 1.28l-4.5 25.55q-.33 1.92 1.61 1.91l8.96-.05a2.05 2.05 0 0 0 2.01-1.69l1.04-5.91a.41.41 0 0 1 .4-.34l9.3-.01a.54.54 0 0 1 .54.62c-1.33 8.44-2 16.8-12.57 17.59q-2.87.22-13.75.01c-8.22-.16-9.06-6.38-7.76-13.03q2.31-11.83 4.2-23.78c1.22-7.67 4.62-12.69 13-12.47q5.22.14 10.93-.03c6.21-.19 10.32 2.11 9.77 9.15q-.38 4.87-1.64 8.93a.39.37 7.5 0 1 -.35.26q-4.86.07-9.63-.05a.1.09 4.8 0 1 -.1-.11zm-17.69 3.66q.46-2.61 1.16-5.17c.65-2.4 2.53-3.82 4.93-3.85q5.9-.09 12.39-.06 2.12.01 2.99 1.02c1.62 1.89.72 3.94.44 6.1q-.04.29.14.52.14.17.36.17.54-.01.7-.52c1.12-3.55 1.3-8.39-3.74-8.71q-6.32-.39-12.5-.2c-2.98.09-6.22 1.76-7.06 4.75q-.82 2.93-1.31 6.07-1.85 11.67-3.99 23.51c-.55 3.03 1.2 6 4.46 5.94q5.83-.11 12.04-.04c5.5.07 7.43-3.36 8.19-8.32a.5.49-74.3 0 0 -.29-.52l-.31-.13q-.66-.28-.8.42-.21 1.1-.41 2.32-.87 5.32-6.3 5.24-5.98-.09-11.98-.17a3.61 3.6-84.4 0 1 -3.5-4.27q2.32-12.43 4.39-24.1z"/><path d="m218.27 59.52c-1 5.66-5.63 9.46-11.15 9.62q-6.06.19-13.77.06-10.83-.17-8.84-11.21 2.17-12.01 4.58-26.17c1.26-7.4 4.76-12.09 12.73-11.9q5.97.14 12.24-.03c7.41-.2 10.56 3.78 9.27 11.09q-2.73 15.33-5.06 28.54zm-29.45-.99a5.21 5.21 0 0 0 5.34 6.15l14.44-.58a5.21 5.21 0 0 0 4.91-4.27l5.43-29.49a5.21 5.21 0 0 0 -5.27-6.15l-14.4.41a5.21 5.21 0 0 0 -4.97 4.26z"/><path d="m227.12 57.93 4.73-26.96a.64.64 0 0 0 -.64-.76l-2.38.04q-.69.01-.57-.67l1.54-9.05q.1-.58.69-.58 12.7.02 25.67-.01c6.58-.01 8.61 4.89 7.6 10.61q-2.13 12.12-4.65 26.84c-1.38 8.06-5.25 11.92-13.61 11.88q-13.04-.08-23.46-.03a.65.65 0 0 1 -.65-.76l1.52-9q.12-.73.87-.75l2.44-.04q.77-.01.9-.76zm2.68 5.33-3.85.18q-.44.02-.33.45l.07.28a.35.34 82.2 0 0 .33.26q10.2.03 20.68.03 6.77 0 7.94-6.53 2.54-14.2 4.97-28.28a4.36 4.36 0 0 0 -4.31-5.1h-22.32q-.35 0-.36.35l-.01.34q-.01.38.38.39l3.07.09q1.06.03.88 1.08l-6.25 35.67q-.13.75-.89.79z"/><path d="m97.51 69.18-1.91 2.11a1.32 1.32 0 0 1 -2.04-.11l-.7-.95q-.44-.61-1.16-.39-.89.26-1.63-.18-.49-.3-.6-.93-1-5.36-1.33-10.9a1.68 1.67 88.3 0 0 -1.66-1.57q-4.84-.01-9.18.93-.72.16-1.13.76-4.65 6.73-10.66 13.07a.68.68 0 0 1 -1.12-.21q-.26-.64-.9-1.05-.48-.31-.97-.04l-2.79 1.54q-1.04.58-1.74-.38c-1.16-1.58-1.72-3.54-.61-5.28q10.94-17.17 22.82-41.9c1.55-3.22 5.77-3.79 8.84-3.2q2.93.56 6.03-.04 1.13-.22 1.37.91c.48 2.22.81 4.58.69 6.85q-.21 3.73.1 7.45 1.27 15.1 2.95 29.65.3 2.57-1.89 3.34-.46.16-.78.52zm-17-22.67a.34.34 0 0 0 .31.47l6.02-.07a.34.34 0 0 0 .33-.35l-.64-11.96a.34.34 0 0 0 -.65-.12z"/></g><path d="m156.66 34.92q-2.07 11.67-4.39 24.1a3.61 3.6-84.4 0 0 3.5 4.27q6 .08 11.98.17 5.43.08 6.3-5.24.2-1.22.41-2.32.14-.7.8-.42l.31.13a.5.49-74.3 0 1 .29.52c-.76 4.96-2.69 8.39-8.19 8.32q-6.21-.07-12.04.04c-3.26.06-5.01-2.91-4.46-5.94q2.14-11.84 3.99-23.51.49-3.14 1.31-6.07c.84-2.99 4.08-4.66 7.06-4.75q6.18-.19 12.5.2c5.04.32 4.86 5.16 3.74 8.71q-.16.51-.7.52-.22 0-.36-.17-.18-.23-.14-.52c.28-2.16 1.18-4.21-.44-6.1q-.87-1.01-2.99-1.02-6.49-.03-12.39.06c-2.4.03-4.28 1.45-4.93 3.85q-.7 2.56-1.16 5.17z" fill="#ff5000"/><path d="m272.83 45.17-3.42 17.82a.25.25 0 0 0 .24.3l19.73.08a.25.25 0 0 1 .25.26l-.03.48a.25.25 0 0 1 -.25.24l-21.17.17a.25.25 0 0 1 -.25-.29l6.86-39.7a.25.25 0 0 1 .25-.21l21.11.27a.25.25 0 0 1 .25.26l-.02.51a.25.25 0 0 1 -.25.24l-19.73.37a.25.25 0 0 0 -.24.2l-3.14 16.68a.25.25 0 0 0 .25.3l15.69.29a.25.25 0 0 1 .23.15l.31.78a.25.25 0 0 1 -.22.35l-16.21.25a.25.25 0 0 0 -.24.2z" fill="#ff5000"/><path d="m188.82 58.53 5.48-29.67a5.21 5.21 0 0 1 4.97-4.26l14.4-.41a5.21 5.21 0 0 1 5.27 6.15l-5.43 29.49a5.21 5.21 0 0 1 -4.91 4.27l-14.44.58a5.21 5.21 0 0 1 -5.34-6.15zm1.26.28a3.88 3.88 0 0 0 3.88 4.59l14.58-.22a3.88 3.88 0 0 0 3.76-3.19l5.4-29.69a3.88 3.88 0 0 0 -3.91-4.58l-14.51.35a3.88 3.88 0 0 0 -3.72 3.18z" fill="#ff5000"/><path d="m230.69 62.47 6.25-35.67q.18-1.05-.88-1.08l-3.07-.09q-.39-.01-.38-.39l.01-.34q.01-.35.36-.35h22.32a4.36 4.36 0 0 1 4.31 5.1q-2.43 14.08-4.97 28.28-1.17 6.53-7.94 6.53-10.48 0-20.68-.03a.35.34 82.2 0 1 -.33-.26l-.07-.28q-.11-.43.33-.45l3.85-.18q.76-.04.89-.79zm23.94-11.61q1.91-9.99 3.39-19.36c.58-3.68-.02-5.72-4.28-5.77q-7.16-.09-13.62-.01-1.88.02-2.21 1.87-3.07 17.51-5.91 33.45c-.1.54-.37.94-.57 1.42a.6.6 0 0 0 .55.83q7.63.14 15.87-.02 3.92-.08 5.01-3.4c.94-2.88 1.19-6.01 1.77-9.01z" fill="#ff5000"/><path d="m254.63 50.86c-.58 3-.83 6.13-1.77 9.01q-1.09 3.32-5.01 3.4-8.24.16-15.87.02a.6.6 0 0 1 -.55-.83c.2-.48.47-.88.57-1.42q2.84-15.94 5.91-33.45.33-1.85 2.21-1.87 6.46-.08 13.62.01c4.26.05 4.86 2.09 4.28 5.77q-1.48 9.37-3.39 19.36zm-17.61 6.67a1.06 1.06 0 0 0 1.06 1.24l10.05-.15a1.06 1.06 0 0 0 1.03-.87l4.59-26.21a1.06 1.06 0 0 0 -1.04-1.24l-9.98-.12a1.06 1.06 0 0 0 -1.06.88z" fill="#fff"/><path d="m190.08 58.81 5.48-29.56a3.88 3.88 0 0 1 3.72-3.18l14.51-.35a3.88 3.88 0 0 1 3.91 4.58l-5.4 29.69a3.88 3.88 0 0 1 -3.76 3.19l-14.58.22a3.88 3.88 0 0 1 -3.88-4.59zm4.86-1.47a1.4 1.4 0 0 0 1.4 1.64l10.57-.12a1.4 1.4 0 0 0 1.36-1.15l4.61-25.87a1.4 1.4 0 0 0 -1.39-1.65l-10.61.07a1.4 1.4 0 0 0 -1.37 1.16z" fill="#fff"/><path d="m194.94 57.34 4.57-25.92a1.4 1.4 0 0 1 1.37-1.16l10.61-.07a1.4 1.4 0 0 1 1.39 1.65l-4.61 25.87a1.4 1.4 0 0 1 -1.36 1.15l-10.57.12a1.4 1.4 0 0 1 -1.4-1.64z" fill="#ff5000"/><path d="m237.02 57.53 4.65-26.47a1.06 1.06 0 0 1 1.06-.88l9.98.12a1.06 1.06 0 0 1 1.04 1.24l-4.59 26.21a1.06 1.06 0 0 1 -1.03.87l-10.05.15a1.06 1.06 0 0 1 -1.06-1.24z" fill="#ff5000"/><path d="m80.51 46.51 5.37-12.03a.34.34 0 0 1 .65.12l.64 11.96a.34.34 0 0 1 -.33.35l-6.02.07a.34.34 0 0 1 -.31-.47z" fill="#ff5000"/><path d="m67.69 101.77q.9-1.11 2.23-1.26.65-.07.58.59l-.09.86q-.07.63-.69.58l-1.77-.16a.38.37 22 0 1 -.26-.61z" fill="#fff"/><path d="m88.06 104.08a.18.18 0 0 1 .17.2l-.01.07a2.14 2.01 4.7 0 1 -2.29 1.82l-.68-.05a2.14 2.01 4.7 0 1 -1.97-2.18l.01-.07a.18.18 0 0 1 .19-.16z" fill="#fff"/><path d="m119.11 201.16c2.24-.7 4.59-1.31 6.92-.6 2.23.67 4.67 1.05 7 .69q4.56-.72 8.89-.79.39 0 .3.38l-.1.4a.43.42-80.7 0 1 -.43.32q-4.3-.25-6.59.64-5.37 2.08.22 2.23.79.02 3.69-.8.14-.04.19.1l.23.56q.07.18-.1.26-2.58 1.33-5 1.3-.59-.01-1.06.35-1.13.86-.77 2.31.13.49-.35.62-3.58 1.04-6.93.7a.07.06 89.6 0 0 -.07.08l.02.26a.37.36-8.9 0 0 .45.32q1.77-.46 2.1 1.24a1.03 1.03 0 0 0 1.39.77q1.62-.62 3.2.11.79.37-.07.5-2.02.32-3.9-.14c-2.22-.53-4.6-.8-5.03 2.2a.87.87 0 0 1 -.6.72q-3.11 1-6.75.8-.06 0-.07.05l-.04.28q-.06.37.31.46 4.46 1.1 9.47.75.89-.06.71.81l-.1.47a1.39 1.38 89.4 0 1 -1.04 1.07c-3.9.94-7.58 2.22-11.66 2.39q-16.39.67-33.07 3.65a.56.55-4.5 0 0 -.46.53q-.09 3.36.51 6.77.04.19.21.27.05.02.09.03.19.04.2-.15.05-2.85.27-5.52.02-.24.16-.44.17-.23.4-.37a.7.7 0 0 1 1.05.47q.91 4.58-1.54 7.04-.49.5-.52 1.2-.18 4.25-1.39 7.91-.5 1.51-.55 3.09-.01.44-.36.71c-1.68 1.28-2.96 1.46-2.89 4.02q.02 1.02-.22 2.01-1.87 7.62-3.49 15c-1.2 5.44-2.8 10.75-4.27 16.17-.45 1.66-1.45 2.72-2.26 4.16a2.02 2 61.6 0 0 -.27.93q-.05.86-.47 1.6-.33.6-.96.35-.8-.31-.66-1.13.5-2.96 1.43-7.52.04-.18-.14-.24l-.27-.08q-.49-.16-.6.35-2.38 10.9-6.14 21.08-.07.19-.26.13l-.24-.07q-.35-.1-.27-.46 1.81-7.9 2-15.18c.04-1.44.55-2.58.84-3.95q.13-.63-.52-.61-.36.02-.48.33-4.81 12.29-5.37 15.12-1.5 7.59-3.73 14.09a.35.34-61.3 0 1 -.54.16l-.24-.18q-.08-.07-.05-.17.8-3.33 1.16-6.85.08-.82-.71-1.05l-.29-.08q-.61-.17-.67.47-.13 1.51-1.28 1.96-.62.24-.53-.43.11-.81.64-1.44a1.28 1.25 61.6 0 0 .28-.97q-.15-1.05-1.06-1.74-.42-.32-.87-.03-3.05 1.97-5.35 4.48a.42.42 0 0 1 -.69-.11c-.88-1.97 1.02-4.2 1.74-5.98q.54-1.32-.79-2.04-.49-.27-.55.28l-.2 1.97q-.07.72-.8.72h-.32q-.47 0-.4-.46c.21-1.43 1.13-2.34 1.31-3.84q.4-3.2.75-6.31c.18-1.6 1.08-2.96 1.22-4.56q.07-.87-.46-.17-.55.74-.83 1.68-.16.51-.55.86-1.51 1.31-2.25 3.35-.17.48-.04.97.87 3.41-1.07 6.28-.75 1.11-.63-.23.35-4.04 1.38-8.32a1.54 1.53 74.3 0 1 .43-.77l.31-.32q.45-.44-.11-.72-1.19-.58-2.42-.46-.6.06-.65.65-.06.62-.05 1.22 0 .3-.16.57-.07.11-.13.23-.29.53-.25-.07.18-3.04.9-6.11 2.03-8.65 3.85-16.49.45-1.92-.19-3.64-.26-.73-.41.03-1.42 7.41-3.02 14.77c-.38 1.74-1.44 3.07-1.69 4.75-.55 3.52-2.12 6.71-2.43 10.23q-.25 2.75-1.94 5.45a1.37 1.35-36.5 0 0 -.16 1.02l.31 1.19q.24.97-.51.31-.74-.65-1.64-.93-.74-.23-.45-.96c.74-1.89 1.45-3.7 1.13-5.77q-.44-2.88 1.48-5.79a1.37 1.34 52.5 0 0 .15-1.23q-.22-.62-.84-.95-.61-.32-.42-.99c.78-2.75.74-5.62 1.35-8.45 4.83-22.44 9.55-44.79 11.41-67.75q2.38-29.29 3.75-58.08a.9.89 12.5 0 0 -.56-.87c-2.29-.9-5.46-2.13-6.31-4.71q-.8-2.43-.82-4.89-.08-7.92.82-15.82.38-3.4 3.76-6.93.36-.38.89-.43 7.19-.66 14.75-1.55 1.99-.23 3.93-.82a1.53 1.53 0 0 0 .84-.65q1.7-2.72 1.8-5.47.05-1.2 1.28-1.39.83-.13 1.52-.63.64-.47-.14-.63-.47-.1-.79-.45-.38-.43-.27-1 .05-.29-.09-.49-.33-.46-.86-.27l-1.63.58a.4.39-13.5 0 1 -.53-.32c-.12-1.01.36-2.14 1.52-2.2q4.61-.22 8.48.55c2.14.43 4.06.15 6.2.26a.66.64 75.7 0 1 .52.32l.14.24a.29.29 0 0 1 -.24.44q-3.72.16-7.13.71-1.08.17-1.92.84-.33.27-.36.69-.04.51.47.48 5.1-.31 10.09-1.82.8-.24 1.36.37.34.39.79.62.64.34 1.37.23 6.15-.87 12.35-1.52 1.02-.11 1.84-.7.48-.35 1.04-.16 1.38.48 2.69.35 19.71-1.98 39.92-2.12 3.08-.02 12.44 1.7c1.72.32 2.85 1.02 4.27 1.91 1.41.87 3.86.71 5.45.62 2.33-.14 4.22.63 6.43 1.02q2.66.46.1 1.31-1.58.53-4.24.26a.89.88 7.9 0 0 -.97.73l-.05.3a.42.41 3.4 0 0 .43.48q6.3-.18 12.24.09.92.04 1.21.88.2.58-.41.64-4.17.35-7.64.01-1.18-.11-1.5 1.04a.77.77 0 0 1 -.72.57q-2.7.11-5.59-.48-1.37-.28-2.52.43-1.23.76.22.81c2.14.08 8.19-.1 6.39 4.01q-.29.66-.96.39-2.33-.93-4.44.07c-2.19 1.04-4.19 1.01-6.45 1.67q-.08.02-.07.1l.01.3q.01.2.21.16c2.87-.52 7.8-1.56 10.63-.4q1.85.76 4.21.13.83-.23 1.56.23 2.74 1.72 5.18-.39c8.56-7.39 18.16-10.47 29.64-10.43q26.38.09 54.36.06 3.77 0 7.34.91c17.52 4.43 24.01 19.71 21.25 36.59q-2.5 15.28-5.59 31.72a.63.62-85 0 1 -.61.52l-37.72.01q-.67 0-.55-.66 2.3-12.55 4.39-25.21c.52-3.17-1.26-5.2-4.25-5.17q-18.5.2-37.55-.03c-4.23-.05-7.2 2.19-7.96 6.47q-8.88 49.95-17.55 99.62c-.69 3.93.91 5.63 4.8 5.64q19.89.07 36.66 0 6.98-.03 8.13-6.06 2.3-12.11 4.36-24.45a.51.51 0 0 1 .5-.43h37.76q.79 0 .65.78-2.35 12.92-4.36 25.18-2.04 12.44-5.11 18.75c-6.02 12.35-16.81 21.55-30.38 24.18q-5.49 1.07-14.6.96-21.04-.25-41.5-.03-12.09.14-17.21-1.43-19.81-6.04-20.47-28.69c-.16-5.68 1.49-12.78 2.58-18.99q9.84-55.98 18.38-104.22c.28-1.58.9-3.13 1.12-4.75a.48.48 0 0 0 -.56-.54c-1.88.33-3.65.21-5.32 1.35q-1.81 1.22-4.04.6c-3.76-1.04-8.72-.77-12.51-.43q-12.03 1.05-25.62 2.59-9.95 1.12-19.95 1.1-.5-.01-.55.49-1.75 15.63-6.38 34.29-.45 1.79-.67 3.61a.58.57 87.1 0 0 .69.63q2.57-.54 4.96-1.02c.96-.19 1.55-.58 2.13-1.34q.35-.46.92-.49c1.99-.09 5.42-.24 6.79-2.02q.34-.44.88-.61.42-.13.73.15.6.54-.1.93-.47.25-1.01.3-.75.07-.05.33.82.29 1.59-.09 1.69-.83 3.53-1.14.59-.1 1.03.3 1.12 1.03 1.44 2.27.12.44.57.5c3.03.39 5.07-1.38 8.22-.36q3.11 1.01 6.36 1.51.87.13 1.76.58 2.62 1.35-.27 1.93-.79.16-1.3.71-.99 1.07.44.84 3.32-.52 6.87-.04.58.08.31.61-.26.52-.9.56-1.59.09-3.15.11-.69.01-1.14.53-1.45 1.68-4.15.97-.65-.17-1.29-.01-.56.14-.89.62-.32.45.23.37 2.64-.39 4.14 1.67.3.41.22.91-.22 1.44-1.44 1.67a1.23 1.22 64.7 0 1 -1.16-.42q-.2-.25-.49-.36-.51-.2-.89.2-1.61 1.72-4.24 2.52-.06.02-.04.08l.07.25q.1.38.48.26zm42.298-80.997a.98.56 100.7 0 0 .7323-.859.98.56 100.7 0 0 -.3683-1.067.98.56 100.7 0 0 -.7323.859.98.56 100.7 0 0 .3683 1.067zm10.1812 5.7442a1.68.38-1.8 0 0 -1.6911-.327 1.68.38-1.8 0 0 -1.6673.4326 1.68.38-1.8 0 0 1.6911.327 1.68.38-1.8 0 0 1.6673-.4326zm11.0708 27.2628c1.94-10.9 10.01-19.02 21.35-18.96q19.4.1 42.4-.08 9.41-.08 12.83 1.48 8.39 3.83 7.67 14.66-.38 5.64-2.32 14.2-.25 1.11.88 1.16l2.52.12q.94.04 1.13-.88c2.72-12.64 6.13-27.7-7.4-33.74q-4.21-1.88-13.73-1.75-19 .24-38.87.02-7.89-.09-12.8 1.47c-10.38 3.3-16.5 12.53-18.32 22.88q-9.07 51.67-18.78 106.44c-2.51 14.14 3.57 24.59 19.14 24.52q18.87-.08 40.1.07 10.45.08 15.37-1.51c15.17-4.89 18.54-18.69 20.24-33.72q.07-.6-.53-.58l-3.1.05q-.71.02-.82.72-1.51 9.55-2.17 12.25-4.4 18.02-23.12 18.01-22.86-.01-45.59-.04c-6.85-.01-13.23-3.02-14.87-10.17q-1-4.37-.29-8.46 9.21-52.61 19.08-108.16zm-14.9629-20.6519a1.77.52-3.3 0 0 -1.797-.4172 1.77.52-3.3 0 0 -1.7372.621 1.77.52-3.3 0 0 1.797.4172 1.77.52-3.3 0 0 1.7372-.621zm-4.4871 4.8719q-.77.1-1.28.66-.39.43-.97.47c-2.64.2-7.66-.31-9.97 1.02q-.78.45.11.45 5.34.01 10.88.52c2.9.27 3.33-2.91 4.16-4.92a.46.45-78.6 0 0 -.41-.63q-2.57.01-2.37 2.25.01.16-.15.18zm-115.64 163.11q-.41.81-.77 1.57-.52 1.09.58.6 1.42-.64.68-2.75-.24-.68-.46 0-.09.29-.03.58z" fill="#fff"/><ellipse fill="#ff5000" rx=".98" ry=".56" transform="matrix(-.18566662 .9826128 -.9826128 -.18566662 161.59 119.2)"/><path d="m38.38 119.96q.14 1.04-.12 2.1-.15.59-.51.1-.51-.69-.6-1.57-.07-.7.56-.99a.47.47 0 0 1 .67.36z" fill="#fff"/><ellipse fill="#fff" rx="1.07" ry=".7" transform="matrix(.97667228 .21473533 -.21473533 .97667228 172.27 120.85)"/><ellipse fill="#ff5000" rx="1.68" ry=".38" transform="matrix(.99950656 -.03141076 .03141076 .99950656 169.91 125.96)"/><path d="m204.01 134.21c-11.34-.06-19.41 8.06-21.35 18.96q-9.87 55.55-19.08 108.16-.71 4.09.29 8.46c1.64 7.15 8.02 10.16 14.87 10.17q22.73.03 45.59.04 18.72.01 23.12-18.01.66-2.7 2.17-12.25.11-.7.82-.72l3.1-.05q.6-.02.53.58c-1.7 15.03-5.07 28.83-20.24 33.72q-4.92 1.59-15.37 1.51-21.23-.15-40.1-.07c-15.57.07-21.65-10.38-19.14-24.52q9.71-54.77 18.78-106.44c1.82-10.35 7.94-19.58 18.32-22.88q4.91-1.56 12.8-1.47 19.87.22 38.87-.02 9.52-.13 13.73 1.75c13.53 6.04 10.12 21.1 7.4 33.74q-.19.92-1.13.88l-2.52-.12q-1.13-.05-.88-1.16 1.94-8.56 2.32-14.2.72-10.83-7.67-14.66-3.42-1.56-12.83-1.48-23 .18-42.4.08z" fill="#ff5000"/><ellipse fill="#ff5000" rx="1.77" ry=".52" transform="matrix(.99834182 -.05756403 .05756403 .99834182 165.93 132.62)"/><path d="m163.36 137.21q-.2-2.24 2.37-2.25a.46.45-78.6 0 1 .41.63c-.83 2.01-1.26 5.19-4.16 4.92q-5.54-.51-10.88-.52-.89 0-.11-.45c2.31-1.33 7.33-.82 9.97-1.02q.58-.04.97-.47.51-.56 1.28-.66.16-.02.15-.18z" fill="#ff5000"/><ellipse fill="#fff" rx="2.38" ry=".35" transform="matrix(-.23853346 .97113428 -.97113428 -.23853346 92.62 177.6)"/><path d="m92.87 183.28q-.4-.71-.04-1.29a.48.47 54.3 0 1 .87.15q.15.61-.22 1.16a.36.35 46.8 0 1 -.61-.02z" fill="#fff"/><path d="m130.59 198.65q-.11 1.06-.7.17-.51-.79-.77-1.73-.16-.54.4-.61.23-.02.45.04.2.05.3.23.44.87.32 1.9z" fill="#fff"/><ellipse fill="#fff" rx=".77" ry=".54" transform="matrix(.7193398 -.69465837 .69465837 .7193398 135.27 208.52)"/><path d="m47.57 300.5q-.06-.29.03-.58.22-.68.46 0 .74 2.11-.68 2.75-1.1.49-.58-.6.36-.76.77-1.57z" fill="#ff5000"/></svg>