<svg width="163" height="163" viewBox="0 0 163 163" fill="none" xmlns="http://www.w3.org/2000/svg">
<g opacity="0.4" filter="url(#filter0_f_1480_56)">
<path d="M81.1625 47.2475C82.63 47.2475 84.0761 47.3401 85.4945 47.5209C80.0478 51.3258 76.4849 57.6414 76.4847 64.7895C76.4847 76.4155 85.9095 85.8402 97.5355 85.8402C104.684 85.8402 110.998 82.277 114.803 76.8305C114.984 78.249 115.078 79.6948 115.078 81.1625C115.078 99.8934 99.8934 115.078 81.1625 115.078C62.4317 115.077 47.2474 99.8933 47.2474 81.1625C47.2476 62.4318 62.4318 47.2476 81.1625 47.2475Z" fill="white"/>
</g>
<path d="M81.1625 47.2475C82.63 47.2475 84.0761 47.3401 85.4945 47.5209C80.0478 51.3258 76.4849 57.6414 76.4847 64.7895C76.4847 76.4155 85.9095 85.8402 97.5355 85.8402C104.684 85.8402 110.998 82.277 114.803 76.8305C114.984 78.249 115.078 79.6948 115.078 81.1625C115.078 99.8934 99.8934 115.078 81.1625 115.078C62.4317 115.077 47.2474 99.8933 47.2474 81.1625C47.2476 62.4318 62.4318 47.2476 81.1625 47.2475Z" fill="white"/>
<defs>
<filter id="filter0_f_1480_56" x="-2.28882e-05" y="7.62939e-06" width="162.325" height="162.325" filterUnits="userSpaceOnUse" color-interpolation-filters="sRGB">
<feFlood flood-opacity="0" result="BackgroundImageFix"/>
<feBlend mode="normal" in="SourceGraphic" in2="BackgroundImageFix" result="shape"/>
<feGaussianBlur stdDeviation="23.6237" result="effect1_foregroundBlur_1480_56"/>
</filter>
</defs>
</svg>
