<svg width="558" height="163" viewBox="0 0 558 163" fill="none" xmlns="http://www.w3.org/2000/svg">
<g opacity="0.4" filter="url(#filter0_f_1073_18861)">
<path d="M81.61 47.8813C83.0775 47.8813 84.5236 47.974 85.942 48.1548C80.4953 51.9597 76.9324 58.2753 76.9323 65.4233C76.9323 77.0494 86.357 86.4741 97.983 86.4741C105.131 86.4741 111.446 82.9109 115.251 77.4644C115.431 78.8829 115.525 80.3287 115.525 81.7964C115.525 100.527 100.341 115.711 81.61 115.711C62.8792 115.711 47.6949 100.527 47.6949 81.7964C47.6951 63.0657 62.8793 47.8815 81.61 47.8813Z" fill="white"/>
</g>
<path d="M81.61 47.8813C83.0775 47.8813 84.5236 47.974 85.942 48.1548C80.4953 51.9597 76.9324 58.2753 76.9323 65.4233C76.9323 77.0494 86.357 86.4741 97.983 86.4741C105.131 86.4741 111.446 82.9109 115.251 77.4644C115.431 78.8829 115.525 80.3287 115.525 81.7964C115.525 100.527 100.341 115.711 81.61 115.711C62.8792 115.711 47.6949 100.527 47.6949 81.7964C47.6951 63.0657 62.8793 47.8815 81.61 47.8813Z" fill="white"/>
<path d="M145.137 107.78V62.3098H159.452V107.78H145.137ZM174.234 107.78V81.2088C174.234 78.901 173.517 77.1234 172.082 75.8759C170.71 74.5661 168.995 73.9112 166.936 73.9112C165.502 73.9112 164.223 74.223 163.1 74.8468C161.978 75.4081 161.073 76.219 160.387 77.2793C159.763 78.3397 159.452 79.6495 159.452 81.2088L153.932 78.7763C153.932 75.1586 154.711 72.0712 156.271 69.5139C157.83 66.8942 159.951 64.8983 162.633 63.5261C165.315 62.0915 168.34 61.3742 171.708 61.3742C174.889 61.3742 177.727 62.0915 180.222 63.5261C182.779 64.9607 184.806 66.9566 186.303 69.5139C187.8 72.0712 188.549 75.1275 188.549 78.6827V107.78H174.234ZM203.331 107.78V81.2088C203.331 78.901 202.614 77.1234 201.179 75.8759C199.807 74.5661 198.092 73.9112 196.033 73.9112C194.599 73.9112 193.32 74.223 192.197 74.8468C191.075 75.4081 190.17 76.219 189.484 77.2793C188.86 78.3397 188.549 79.6495 188.549 81.2088L180.315 80.0861C180.44 76.219 181.344 72.9132 183.029 70.1688C184.775 67.362 187.052 65.2102 189.858 63.7132C192.727 62.1539 195.94 61.3742 199.495 61.3742C202.988 61.3742 206.075 62.1227 208.757 63.6197C211.502 65.0542 213.654 67.1437 215.213 69.8881C216.835 72.5702 217.645 75.8136 217.645 79.6183V107.78H203.331ZM248.712 108.809C244.034 108.809 239.792 107.78 235.987 105.721C232.245 103.601 229.282 100.732 227.099 97.1139C224.916 93.4963 223.825 89.442 223.825 84.9512C223.825 80.4603 224.916 76.4373 227.099 72.882C229.282 69.3268 232.245 66.52 235.987 64.4617C239.73 62.341 243.971 61.2807 248.712 61.2807C253.452 61.2807 257.693 62.3098 261.436 64.3681C265.178 66.4264 268.141 69.2644 270.324 72.882C272.507 76.4373 273.598 80.4603 273.598 84.9512C273.598 89.442 272.507 93.4963 270.324 97.1139C268.141 100.732 265.178 103.601 261.436 105.721C257.693 107.78 253.452 108.809 248.712 108.809ZM248.712 95.8041C250.77 95.8041 252.579 95.3675 254.138 94.4942C255.697 93.5586 256.882 92.28 257.693 90.6583C258.566 88.9742 259.003 87.0719 259.003 84.9512C259.003 82.8305 258.566 80.9905 257.693 79.4312C256.82 77.8095 255.604 76.562 254.044 75.6888C252.547 74.7532 250.77 74.2854 248.712 74.2854C246.716 74.2854 244.938 74.7532 243.379 75.6888C241.819 76.562 240.603 77.8095 239.73 79.4312C238.857 81.0529 238.42 82.9241 238.42 85.0447C238.42 87.1031 238.857 88.9742 239.73 90.6583C240.603 92.28 241.819 93.5586 243.379 94.4942C244.938 95.3675 246.716 95.8041 248.712 95.8041ZM302.618 108.809C297.94 108.809 293.698 107.78 289.894 105.721C286.151 103.601 283.189 100.732 281.006 97.1139C278.823 93.4963 277.731 89.442 277.731 84.9512C277.731 80.4603 278.823 76.4373 281.006 72.882C283.189 69.3268 286.151 66.52 289.894 64.4617C293.636 62.341 297.877 61.2807 302.618 61.2807C307.358 61.2807 311.599 62.3098 315.342 64.3681C319.084 66.4264 322.047 69.2644 324.23 72.882C326.413 76.4373 327.505 80.4603 327.505 84.9512C327.505 89.442 326.413 93.4963 324.23 97.1139C322.047 100.732 319.084 103.601 315.342 105.721C311.599 107.78 307.358 108.809 302.618 108.809ZM302.618 95.8041C304.676 95.8041 306.485 95.3675 308.044 94.4942C309.604 93.5586 310.789 92.28 311.599 90.6583C312.473 88.9742 312.909 87.0719 312.909 84.9512C312.909 82.8305 312.473 80.9905 311.599 79.4312C310.726 77.8095 309.51 76.562 307.951 75.6888C306.454 74.7532 304.676 74.2854 302.618 74.2854C300.622 74.2854 298.844 74.7532 297.285 75.6888C295.726 76.562 294.509 77.8095 293.636 79.4312C292.763 81.0529 292.326 82.9241 292.326 85.0447C292.326 87.1031 292.763 88.9742 293.636 90.6583C294.509 92.28 295.726 93.5586 297.285 94.4942C298.844 95.3675 300.622 95.8041 302.618 95.8041ZM364.664 107.78V81.8637C364.664 79.4936 363.915 77.5912 362.418 76.1566C360.984 74.6597 359.144 73.9112 356.898 73.9112C355.339 73.9112 353.967 74.2542 352.782 74.9403C351.597 75.5641 350.661 76.4997 349.975 77.7471C349.289 78.9322 348.946 80.3044 348.946 81.8637L343.426 79.1505C343.426 75.5953 344.205 72.4766 345.765 69.7946C347.324 67.1125 349.476 65.0542 352.22 63.6197C355.027 62.1227 358.177 61.3742 361.67 61.3742C365.038 61.3742 368.001 62.1851 370.558 63.8068C373.178 65.3661 375.236 67.4556 376.733 70.0753C378.23 72.6949 378.978 75.5641 378.978 78.6827V107.78H364.664ZM334.631 107.78V62.3098H348.946V107.78H334.631ZM410.158 108.809C405.48 108.809 401.239 107.78 397.434 105.721C393.63 103.663 390.636 100.825 388.453 97.2075C386.27 93.5898 385.178 89.5356 385.178 85.0447C385.178 80.4915 386.27 76.4373 388.453 72.882C390.698 69.2644 393.723 66.4264 397.528 64.3681C401.333 62.3098 405.605 61.2807 410.346 61.2807C413.901 61.2807 417.144 61.9044 420.076 63.1519C423.07 64.3369 425.72 66.1458 428.028 68.5783L418.859 77.7471C417.799 76.562 416.552 75.6888 415.117 75.1275C413.745 74.5661 412.154 74.2854 410.346 74.2854C408.287 74.2854 406.447 74.7532 404.826 75.6888C403.266 76.562 402.019 77.8095 401.083 79.4312C400.21 80.9905 399.773 82.8305 399.773 84.9512C399.773 87.0719 400.21 88.9431 401.083 90.5647C402.019 92.1864 403.297 93.4651 404.919 94.4007C406.541 95.3363 408.35 95.8041 410.346 95.8041C412.217 95.8041 413.87 95.4922 415.304 94.8685C416.801 94.1824 418.08 93.2468 419.14 92.0617L428.215 101.231C425.845 103.725 423.163 105.628 420.169 106.938C417.175 108.185 413.838 108.809 410.158 108.809ZM464.619 107.78V81.8637C464.619 79.4936 463.87 77.5912 462.373 76.1566C460.939 74.6597 459.099 73.9112 456.853 73.9112C455.294 73.9112 453.922 74.2542 452.737 74.9403C451.552 75.5641 450.616 76.4997 449.93 77.7471C449.244 78.9322 448.901 80.3044 448.901 81.8637L443.381 79.1505C443.381 75.5953 444.129 72.4766 445.626 69.7946C447.123 67.1125 449.213 65.0542 451.895 63.6197C454.577 62.1227 457.664 61.3742 461.157 61.3742C464.712 61.3742 467.831 62.1227 470.513 63.6197C473.195 65.0542 475.253 67.0814 476.688 69.701C478.185 72.2583 478.933 75.2522 478.933 78.6827V107.78H464.619ZM434.586 107.78V39.8556H448.901V107.78H434.586ZM488.127 107.78V62.3098H502.442V107.78H488.127ZM495.331 56.0414C493.086 56.0414 491.214 55.2929 489.717 53.7959C488.283 52.2366 487.566 50.3654 487.566 48.1824C487.566 45.9369 488.283 44.0658 489.717 42.5688C491.214 41.0719 493.086 40.3234 495.331 40.3234C497.576 40.3234 499.416 41.0719 500.851 42.5688C502.286 44.0658 503.003 45.9369 503.003 48.1824C503.003 50.3654 502.286 52.2366 500.851 53.7959C499.416 55.2929 497.576 56.0414 495.331 56.0414ZM512.522 107.78V39.8556H526.836V107.78H512.522ZM536.917 107.78V39.8556H551.231V107.78H536.917Z" fill="white"/>
<defs>
<filter id="filter0_f_1073_18861" x="0.447487" y="0.633888" width="162.325" height="162.325" filterUnits="userSpaceOnUse" color-interpolation-filters="sRGB">
<feFlood flood-opacity="0" result="BackgroundImageFix"/>
<feBlend mode="normal" in="SourceGraphic" in2="BackgroundImageFix" result="shape"/>
<feGaussianBlur stdDeviation="23.6237" result="effect1_foregroundBlur_1073_18861"/>
</filter>
</defs>
</svg>
